<?xml version="1.0" encoding="UTF-8"?>
<svg xmlns="http://www.w3.org/2000/svg" viewBox="0 0 160 160" style="background: #1a5f3f;">
  <defs>
    <style>
      .icon-fill {
        fill: #fff;
      }
    </style>
  </defs>
  <!-- Icon/emblem only - centered and scaled for favicon -->
  <g transform="translate(5, 3) scale(1.05)">
    <path class="icon-fill" d="M74.72,0h-.37c-13.81,.56-26.69,4.69-37.75,11.51l.02,.02s-.7,.44-.78,.49c-.26,.17-.52,.34-.77,.51-.51,.34-1.01,.69-1.5,1.06-.49,.36-.97,.73-1.44,1.12-.46,.38-.91,.77-1.35,1.17-.43,.4-.86,.8-1.27,1.22-.41,.42-.8,.84-1.17,1.28-.38,.44-.74,.89-1.08,1.35-.34,.46-.66,.92-.97,1.4-.3,.48-.59,.97-.85,1.47-.26,.5-.51,1.01-.73,1.53-.22,.52-.42,1.06-.6,1.59-.18,.55-.33,1.1-.46,1.66-.13,.57-.24,1.15-.32,1.73-.08,.6-.14,1.19-.17,1.8-.03,.62-.03,1.24,0,1.87,.03,.65,.08,1.29,.16,1.94,.09,.68,.2,1.35,.34,2.02,.15,.71,.33,1.41,.53,2.11,.21,.71,.43,1.41,.68,2.11,.24,.68,.5,1.36,.79,2.02,.16,.38,.34,.75,.53,1.12,.34,.65,.74,1.27,1.24,1.8,.07-.36,.14-.72,.22-1.08,.13-.56,.28-1.12,.44-1.67,.17-.56,.36-1.11,.56-1.65,.21-.55,.43-1.09,.67-1.63,.24-.54,.5-1.08,.77-1.61,.28-.54,.56-1.07,.87-1.6,.3-.53,.62-1.06,.95-1.57,.17-.26,.33-.52,.5-.78,.05-.07,.47-.77,.51-.76h-.03c7.38-10.71,17.51-19.68,29.92-25.75l.34-.15-.33,.17c-12.05,6.77-21.65,16.3-28.41,27.4h.03s-.43,.72-.47,.79c-.16,.27-.31,.54-.46,.8-.3,.54-.58,1.08-.86,1.62-.27,.54-.53,1.09-.77,1.65-.24,.55-.46,1.1-.67,1.65-.21,.55-.4,1.11-.57,1.67-.17,.55-.33,1.11-.46,1.68-.14,.56-.25,1.12-.35,1.69-.04,.23-.07,.45-.1,.68,.29,.13,.58,.25,.88,.35,1.05,.38,2.13,.69,3.2,1,1.07,.31,2.16,.56,3.26,.76,.76,.14,1.54,.24,2.31,.31,.53,.05,1.07,.08,1.6,.09,.51,.01,1.02,0,1.53-.02,.49-.02,.98-.07,1.47-.13,.47-.06,.93-.13,1.4-.22,.45-.09,.9-.2,1.34-.32,.43-.12,.86-.26,1.28-.41,.41-.15,.82-.32,1.22-.5,.39-.18,.78-.38,1.16-.59,.38-.21,.75-.43,1.11-.67,.36-.24,.71-.49,1.06-.75,.34-.26,.68-.53,1-.82,.33-.28,.64-.58,.95-.88,.31-.31,.62-.62,.91-.95,.3-.33,.59-.67,.87-1.01,.28-.35,.56-.7,.82-1.06,.27-.36,.53-.74,.78-1.11,.26-.38,.5-.77,.74-1.17,.24-.4,.48-.8,.71-1.21,.23-.41,.46-.83,.67-1.24,.22-.42,.43-.85,.64-1.28,.21-.43,.41-.87,.61-1.31,.2-.44,.39-.89,.58-1.34,.19-.45,.37-.9,.55-1.36,.18-.46,.36-.92,.53-1.38,.17-.46,.34-.93,.51-1.4,.17-.47,.33-.94,.49-1.41,.16-.47,.31-.94,.47-1.41,.15-.47,.3-.94,.45-1.41,.15-.47,.29-.94,.44-1.41,.14-.47,.28-.94,.42-1.41,.14-.46,.28-.93,.41-1.39,.13-.46,.27-.92,.4-1.38,.13-.45,.26-.91,.4-1.36,.13-.45,.26-.89,.39-1.34,.13-.44,.26-.87,.39-1.31,.13-.43,.26-.86,.39-1.28,.12-.4,.25-.8,.37-1.2C70.94,4.5,74.72,0,74.72,0"/>
    <path class="icon-fill" d="M79.94,154.51h.37c13.81-.56,26.69-4.69,37.75-11.51l-.02-.02s.7-.44,.78-.49c.26-.17,.52-.34,.77-.51,.51-.34,1.01-.69,1.5-1.06,.49-.36,.97-.73,1.44-1.12,.46-.38,.91-.77,1.35-1.17,.43-.4,.86-.8,1.27-1.22,.41-.42,.8-.84,1.17-1.28,.38-.44,.74-.89,1.08-1.35,.34-.46,.66-.92,.97-1.4,.3-.48,.59-.97,.85-1.47,.26-.5,.51-1.01,.73-1.53,.22-.52,.42-1.06,.6-1.59,.18-.55,.33-1.1,.46-1.66,.13-.57,.24-1.15,.32-1.73,.08-.6,.14-1.19,.17-1.8,.03-.62,.03-1.24,0-1.87-.03-.65-.08-1.29-.16-1.94-.09-.68-.2-1.35-.34-2.02-.15-.71-.33-1.41-.53-2.11-.21-.71-.43-1.41-.68-2.11-.24-.68-.5-1.36-.79-2.02-.16-.38-.34-.75-.53-1.12-.34-.65-.74-1.27-1.24-1.8-.07,.36-.14,.72-.22,1.08-.13,.56-.28,1.12-.44,1.67-.17,.56-.36,1.11-.56,1.65-.21,.55-.43,1.09-.67,1.63-.24,.54-.5,1.08-.77,1.61-.28,.54-.56,1.07-.87,1.6-.3,.53-.62,1.06-.95,1.57-.17,.26-.33,.52-.5,.78-.05,.07-.47,.77-.51,.76h.03c-7.38,10.71-17.51,19.68-29.92,25.75l-.34,.15,.33-.17c12.05-6.77,21.65-16.3,28.41-27.4h-.03s.43-.72,.47-.79c.16-.27,.31-.54,.46-.8,.3-.54,.58-1.08,.86-1.62,.27-.54,.53-1.09,.77-1.65,.24-.55,.46-1.1,.67-1.65,.21-.55,.4-1.11,.57-1.67,.17-.55,.33-1.11,.46-1.68,.14-.56,.25-1.12,.35-1.69,.04-.23,.07-.45,.1-.68-.29-.13-.58-.25-.88-.35-1.05-.38-2.13-.69-3.2-1-1.07-.31-2.16-.56-3.26-.76-.76-.14-1.54-.24-2.31-.31-.53-.05-1.07-.08-1.6-.09-.51-.01-1.02,0-1.53,.02-.49,.02-.98,.07-1.47,.13-.47,.06-.93,.13-1.4,.22-.45,.09-.9,.2-1.34,.32-.43,.12-.86,.26-1.28,.41-.41,.15-.82,.32-1.22,.5-.39,.18-.78,.38-1.16,.59-.38,.21-.75,.43-1.11,.67-.36,.24-.71,.49-1.06,.75-.34,.26-.68,.53-1,.82-.33,.28-.64,.58-.95,.88-.31,.31-.62,.62-.91,.95-.3,.33-.59,.67-.87,1.01-.28,.35-.56,.7-.82,1.06-.27,.36-.53,.74-.78,1.11-.26,.38-.5,.77-.74,1.17-.24,.4-.48,.8-.71,1.21-.23,.41-.46,.83-.67,1.24-.22,.42-.43,.85-.64,1.28-.21,.43-.41,.87-.61,1.31-.2,.44-.39,.89-.58,1.34-.19,.45-.37,.9-.55,1.36-.18,.46-.36,.92-.53,1.38-.17,.46-.34,.93-.51,1.4-.17,.47-.33,.94-.49,1.41-.16,.47-.31,.94-.47,1.41-.15-.47-.3-.94-.45,1.41-.15,.47-.29,.94-.44,1.41-.14,.47-.28,.94-.42,1.41-.14,.46-.28,.93-.41,1.39-.13,.46-.27,.92-.4,1.38-.13,.45-.26,.91-.4,1.36-.13,.45-.26,.89-.39,1.34-.13,.44-.26,.87-.39,1.31-.13,.43-.26,.86-.39,1.28-.12,.4-.25,.8-.37,1.2-2.54,8.01-6.33,12.51-6.33,12.51"/>
    <path class="icon-fill" d="M11.73,118.14l.18,.32c7.39,11.68,17.41,20.77,28.85,26.94v-.03s.74,.39,.82,.43c.27,.14,.55,.28,.83,.42,.55,.27,1.11,.53,1.67,.77,.56,.24,1.12,.47,1.68,.69,.56,.21,1.12,.41,1.69,.59,.56,.18,1.13,.34,1.69,.49,.56,.14,1.13,.27,1.7,.38,.57,.11,1.14,.19,1.71,.26,.56,.07,1.13,.11,1.7,.13,.56,.02,1.13,.03,1.7,0,.56-.02,1.13-.07,1.69-.13,.56-.07,1.12-.16,1.68-.28,.56-.12,1.12-.26,1.67-.43,.56-.17,1.12-.37,1.66-.59,.56-.23,1.1-.48,1.64-.76,.55-.28,1.09-.59,1.62-.93,.55-.35,1.08-.72,1.6-1.11,.54-.41,1.07-.85,1.58-1.3,.54-.48,1.06-.99,1.56-1.51,.51-.53,1.01-1.08,1.48-1.65,.47-.55,.93-1.11,1.36-1.69,.24-.33,.48-.67,.7-1.02,.39-.62,.72-1.28,.94-1.97-.35,.12-.7,.24-1.05,.35-.55,.17-1.11,.32-1.67,.45-.56,.13-1.13,.24-1.71,.34-.58,.10-1.16,.17-1.75,.24-.59,.06-1.19,.11-1.78,.14-.61,.03-1.21,.05-1.82,.05-.61,0-1.22,0-1.84-.04-.31-.01-.62-.03-.93-.05-.09,0-.91-.02-.91-.07v.03c-12.94-1.04-25.78-5.32-37.25-13.04l-.3-.22,.31,.2c11.89,7.05,24.94,10.6,37.93,10.9v-.03s.82,.01,.91,.02c.31,0,.62,0,.93,0,.61,0,1.22-.03,1.84-.07,.61-.04,1.21-.09,1.81-.15,.59-.07,1.18-.15,1.77-.24,.58-.10,1.16-.21,1.73-.34,.57-.13,1.13-.27,1.68-.44,.55-.16,1.10-.34,1.64-.54,.22-.08,.43-.17,.64-.25-.03-.31-.08-.63-.13-.94-.2-1.10-.47-2.19-.74-3.27-.27-1.08-.59-2.16-.97-3.21-.26-.73-.56-1.45-.88-2.16-.22-.48-.47-.96-.72-1.43-.24-.45-.5-.88-.78-1.31-.26-.41-.54-.82-.84-1.21-.28-.38-.58-.74-.89-1.10-.30-.34-.62-.68-.95-1-.32-.31-.65-.61-1-.90-.34-.28-.69-.55-1.04-.80-.35-.25-.72-.49-1.09-.71-.37-.22-.75-.43-1.13-.63-.39-.20-.78-.38-1.17-.54-.40-.17-.80-.32-1.21-.46-.41-.14-.82-.27-1.24-.39-.42-.12-.85-.22-1.28-.31-.43-.09-.87-.17-1.31-.25-.44-.07-.89-.13-1.33-.18-.45-.05-.90-.09-1.35-.12-.46-.03-.92-.05-1.38-.06-.47-.01-.93-.01-1.40,0-.47,0-.94,.02-1.41,.04-.48,.02-.95,.05-1.43,.09-.48,.04-.96,.08-1.44,.13-.48,.05-.97,.11-1.45,.17-.48,.06-.97,.13-1.45,.20-.49,.07-.97,.15-1.46,.23-.49,.08-.98,.17-1.46,.26-.49,.09-.98,.18-1.46,.28-.48,.10-.97,.20-1.45,.30-.48,.10-.96,.21-1.45,.32-.48,.11-.96,.22-1.44,.33-.48,.11-.95,.22-1.43,.34-.47,.11-.94,.23-1.41,.34-.46,.11-.93,.23-1.39,.34-.46,.11-.92,.23-1.38,.34-.45,.11-.91,.22-1.36,.33-.44,.11-.89,.21-1.33,.32-.43,.10-.87,.20-1.31,.30-.41,.09-.82,.19-1.23,.28-8.21,1.80-14,.78-14,.78"/>
    <path class="icon-fill" d="M142.93,36.37l-.18-.32c-7.39-11.68-17.41-20.77-28.85-26.94v.03s-.74-.39-.82-.43c-.27-.14-.55-.28-.83-.42-.55-.27-1.11-.53-1.67-.77-.56-.24-1.12-.47-1.68-.69-.56-.21-1.12-.41-1.69-.59-.56-.18-1.13-.34-1.69-.49-.56-.14-1.13-.27-1.70-.38-.57-.11-1.14-.19-1.71-.26-.56-.07-1.13-.11-1.70-.13-.56-.02-1.13-.03-1.70,0-.56,.02-1.13,.07-1.69,.13-.56,.07-1.12,.16-1.68,.28-.56,.12-1.12,.26-1.67,.43-.56,.17-1.12,.37-1.66,.59-.56,.23-1.10,.48-1.64,.76-.55,.28-1.09,.59-1.62,.93-.55,.35-1.08,.72-1.60,1.11-.54,.41-1.07,.85-1.58,1.30-.54,.48-1.06,.99-1.56,1.51-.51,.53-1.01,1.08-1.48,1.65-.47,.55-.93,1.11-1.36,1.69-.24,.33-.48,.67-.70,1.02-.39,.62-.72,1.28-.93,1.97,.35-.12,.69-.24,1.05-.35,.55-.17,1.11-.32,1.67-.45,.56-.13,1.13-.24,1.71-.34,.58-.10,1.16-.17,1.75-.24,.59-.06,1.19-.11,1.78-.14,.61-.03,1.21-.05,1.82-.05,.61,0,1.22,0,1.84,.04,.31,.01,.62,.03,.93,.05,.09,0,.91,.02,.91,.07v-.03c12.94,1.04,25.78,5.32,37.25,13.04l.30,.22-.31-.20c-11.89-7.05-24.94-10.60-37.93-10.90v.03s-.82-.01-.91-.02c-.31,0-.62,0-.93,0-.61,0-1.22,.03-1.84,.07-.61,.04-1.21,.09-1.81,.15-.59,.07-1.18,.15-1.77,.24-.58,.10-1.16,.21-1.73,.34-.57,.13-1.13,.27-1.68,.44-.55,.16-1.10,.34-1.64,.54-.22,.08-.43,.17-.64,.25,.03,.31,.08,.63,.13,.94,.20,1.10,.47,2.19,.74,3.27,.27,1.08,.59,2.16,.97,3.21,.26,.73,.56,1.45,.88,2.16,.22,.48,.47,.96,.72,1.43,.24,.45,.50,.88,.78,1.31,.26,.41,.54,.82,.84,1.21,.28,.38,.58,.74,.89,1.10,.30,.34,.62,.68,.95,1,.32,.31,.65,.61,1,.90,.34,.28,.69,.55,1.04,.80,.35,.25,.72,.49,1.09,.71,.37,.22,.75,.43,1.13,.63,.39,.20,.78,.38,1.17,.54,.40,.17,.80,.32,1.21,.46,.41,.14,.82,.27,1.24,.39,.42,.12,.85,.22,1.28,.31,.43,.09,.87,.17,1.31,.25,.44,.07,.89,.13,1.33,.18,.45,.05,.90,.09,1.35,.12,.46,.03,.92,.05,1.38,.06,.47,.01,.93,.01,1.40,0,.47,0,.94-.02,1.41-.04,.48-.02,.95-.05,1.43-.09,.48-.04,.96-.08,1.44-.13,.48-.05,.97-.11,1.45-.17,.48-.06,.97-.13,1.45-.20,.49-.07,.97-.15,1.46-.23,.49-.08,.98-.17,1.46-.26,.49-.09,.98-.18,1.46-.28,.48-.10,.97-.20,1.45-.30,.48-.10,.96-.21,1.45-.32,.48-.11,.96-.22,1.44-.33,.48-.11,.95-.22,1.43-.34,.47-.11,.94-.23,1.41-.34,.46-.11,.93-.23,1.39-.34,.46-.11,.92-.23,1.38-.34,.45-.11,.91-.22,1.36-.33,.44-.11,.89-.21,1.33-.32,.43-.10,.87-.20,1.31-.30,.41-.09,.82-.19,1.23-.28,8.21-1.80,14-.78,14-.78"/>
  </g>
</svg>
