<svg xmlns="http://www.w3.org/2000/svg" version="1.1" xmlns:xlink="http://www.w3.org/1999/xlink" width="1000" height="1000"><g clip-path="url(#SvgjsClipPath1083)"><rect width="1000" height="1000" fill="#1a5f3f"></rect><g transform="matrix(4.530451103488447,0,0,4.530451103488447,150,150)"><svg xmlns="http://www.w3.org/2000/svg" xmlns:xlink="http://www.w3.org/1999/xlink" id="Layer_1" data-name="Layer 1" viewBox="0 0 154.51 154.51" width="154.51" height="154.51"><defs>
    <style>
      .cls-1, .cls-2 {
        fill: #fff;
      }

      .cls-3 {
        stroke: #fff;
        stroke-miterlimit: 10;
      }

      .cls-3, .cls-4 {
        fill: none;
      }

      .cls-2 {
        font-family: BwModelicaSS01-Regular, 'Bw Modelica SS01';
        font-size: 12px;
      }

      .cls-5 {
        clip-path: url(#clippath);
      }
    </style>
    <clipPath id="clippath">
      <rect class="cls-4" x="0" y="0" width="154.51" height="154.51"></rect>
    </clipPath>
  <clipPath id="SvgjsClipPath1083"><rect width="1000" height="1000" x="0" y="0" rx="350" ry="350"></rect></clipPath></defs><g class="cls-5">
    <path class="cls-1" d="M109.52,75.85h-10.04v3.49h5.69c-.36,3.49-2.77,5.75-6.44,5.75-4.23,0-7.03-3.13-7.03-7.84s2.83-7.84,7.06-7.84c2.18,0,3.81,.51,4.98,1.58l2.77-2.62c-2.06-1.64-4.65-2.44-7.81-2.44-6.88,0-11.35,4.53-11.35,11.32s4.53,11.32,11.35,11.32,10.88-4.53,10.88-11.32c0-.48-.03-.92-.06-1.4m-31.73,1.43h-4.29v-7.57h4.29c2.32,0,3.84,1.52,3.84,3.78s-1.46,3.78-3.84,3.78m.45-11.05h-8.94v22.05h4.2v-7.51h4.59c4.74,0,7.87-2.98,7.87-7.42s-3.07-7.12-7.72-7.12m-10.98,9.62h-10.04v3.49h5.69c-.36,3.49-2.77,5.75-6.44,5.75-4.23,0-7.03-3.13-7.03-7.84s2.83-7.84,7.06-7.84c2.17,0,3.81,.51,4.98,1.58l2.77-2.62c-2.06-1.64-4.65-2.44-7.81-2.44-6.88,0-11.35,4.53-11.35,11.32s4.53,11.32,11.35,11.32,10.88-4.53,10.88-11.32c0-.48-.03-.92-.06-1.4"></path>
    <path class="cls-1" d="M74.72,0h-.37c-13.81,.56-26.69,4.69-37.75,11.51l.02,.02s-.7,.44-.78,.49c-.26,.17-.52,.34-.77,.51-.51,.34-1.01,.69-1.5,1.06-.49,.36-.97,.73-1.44,1.12-.46,.38-.91,.77-1.35,1.17-.43,.4-.86,.8-1.27,1.22-.41,.42-.8,.84-1.17,1.28-.38,.44-.74,.89-1.08,1.35-.34,.46-.66,.92-.97,1.4-.3,.48-.59,.97-.85,1.47-.26,.5-.51,1.01-.73,1.53-.22,.52-.42,1.06-.6,1.59-.18,.55-.33,1.1-.46,1.66-.13,.57-.24,1.15-.32,1.73-.08,.6-.14,1.19-.17,1.8-.03,.62-.03,1.24,0,1.87,.03,.65,.08,1.29,.16,1.94,.09,.68,.2,1.35,.34,2.02,.15,.71,.33,1.41,.53,2.11,.21,.71,.43,1.41,.68,2.11,.24,.68,.5,1.36,.79,2.02,.16,.38,.34,.75,.53,1.12,.34,.65,.74,1.27,1.24,1.8,.07-.36,.14-.72,.22-1.08,.13-.56,.28-1.12,.44-1.67,.17-.56,.36-1.11,.56-1.65,.21-.55,.43-1.09,.67-1.63,.24-.54,.5-1.08,.77-1.61,.28-.54,.56-1.07,.87-1.6,.3-.53,.62-1.06,.95-1.57,.17-.26,.33-.52,.5-.78,.05-.07,.47-.77,.51-.76h-.03c7.38-10.71,17.51-19.68,29.92-25.75l.34-.15-.33,.17c-12.05,6.77-21.65,16.3-28.41,27.4h.03s-.43,.72-.47,.79c-.16,.27-.31,.54-.46,.8-.3,.54-.58,1.08-.86,1.62-.27,.54-.53,1.09-.77,1.65-.24,.55-.46,1.1-.67,1.65-.21,.55-.4,1.11-.57,1.67-.17,.55-.33,1.11-.46,1.68-.14,.56-.25,1.12-.35,1.69-.04,.23-.07,.45-.1,.68,.29,.13,.58,.25,.88,.35,1.05,.38,2.13,.69,3.2,1,1.07,.31,2.16,.56,3.26,.76,.76,.14,1.54,.24,2.31,.31,.53,.05,1.07,.08,1.6,.09,.51,.01,1.02,0,1.53-.02,.49-.02,.98-.07,1.47-.13,.47-.06,.93-.13,1.4-.22,.45-.09,.9-.2,1.34-.32,.43-.12,.86-.26,1.28-.41,.41-.15,.82-.32,1.22-.5,.39-.18,.78-.38,1.16-.59,.38-.21,.75-.43,1.11-.67,.36-.24,.71-.49,1.06-.75,.34-.26,.68-.53,1-.82,.33-.28,.64-.58,.95-.88,.31-.31,.62-.62,.91-.95,.3-.33,.59-.67,.87-1.01,.28-.35,.56-.7,.82-1.06,.27-.36,.53-.74,.78-1.11,.26-.38,.5-.77,.74-1.17,.24-.4,.48-.8,.71-1.21,.23-.41,.46-.83,.67-1.24,.22-.42,.43-.85,.64-1.28,.21-.43,.41-.87,.61-1.31,.2-.44,.39-.89,.58-1.34,.19-.45,.37-.9,.55-1.36,.18-.46,.36-.92,.53-1.38,.17-.46,.34-.93,.51-1.4,.17-.47,.33-.94,.49-1.41,.16-.47,.31-.94,.47-1.41,.15-.47,.3-.94,.45-1.41,.15-.47,.29-.94,.44-1.41,.14-.47,.28-.94,.42-1.41,.14-.46,.28-.93,.41-1.39,.13-.46,.27-.92,.4-1.38,.13-.45,.26-.91,.4-1.36,.13-.45,.26-.89,.39-1.34,.13-.44,.26-.87,.39-1.31,.13-.43,.26-.86,.39-1.28,.12-.4,.25-.8,.37-1.2C70.94,4.5,74.72,0,74.72,0"></path>
    <path class="cls-1" d="M79.94,154.51h.37c13.81-.56,26.69-4.69,37.75-11.51l-.02-.02s.7-.44,.78-.49c.26-.17,.52-.34,.77-.51,.51-.34,1.01-.69,1.5-1.06,.49-.36,.97-.73,1.44-1.12,.46-.38,.91-.77,1.35-1.17,.43-.4,.86-.8,1.27-1.22,.41-.42,.8-.84,1.17-1.28,.38-.44,.74-.89,1.08-1.35,.34-.46,.66-.92,.97-1.4,.3-.48,.59-.97,.85-1.47,.26-.5,.51-1.01,.73-1.53,.22-.52,.42-1.06,.6-1.59,.18-.55,.33-1.1,.46-1.66,.13-.57,.24-1.15,.32-1.73,.08-.6,.14-1.19,.17-1.8,.03-.62,.03-1.24,0-1.87-.03-.65-.08-1.29-.16-1.94-.09-.68-.2-1.35-.34-2.02-.15-.71-.33-1.41-.53-2.11-.21-.71-.43-1.41-.68-2.11-.24-.68-.5-1.36-.79-2.02-.16-.38-.34-.75-.53-1.12-.34-.65-.74-1.27-1.24-1.8-.07,.36-.14,.72-.22,1.08-.13,.56-.28,1.12-.44,1.67-.17,.56-.36,1.11-.56,1.65-.21,.55-.43,1.09-.67,1.63-.24,.54-.5,1.08-.77,1.61-.28,.54-.56,1.07-.87,1.6-.3,.53-.62,1.06-.95,1.57-.17,.26-.33,.52-.5,.78-.05,.07-.47,.77-.51,.76h.03c-7.38,10.71-17.51,19.68-29.92,25.75l-.34,.15,.33-.17c12.05-6.77,21.65-16.3,28.41-27.4h-.03s.43-.72,.47-.79c.16-.27,.31-.54,.46-.8,.3-.54,.58-1.08,.86-1.62,.27-.54,.53-1.09,.77-1.65,.24-.55,.46-1.1,.67-1.65,.21-.55,.4-1.11,.57-1.67,.17-.55,.33-1.11,.46-1.68,.14-.56,.25-1.12,.35-1.69,.04-.23,.07-.45,.1-.68-.29-.13-.58-.25-.88-.35-1.05-.38-2.13-.69-3.2-1-1.07-.31-2.16-.56-3.26-.76-.76-.14-1.54-.24-2.31-.31-.53-.05-1.07-.08-1.6-.09-.51-.01-1.02,0-1.53,.02-.49,.02-.98,.07-1.47,.13-.47,.06-.93,.13-1.4,.22-.45,.09-.9,.2-1.34,.32-.43,.12-.86,.26-1.28,.41-.41,.15-.82,.32-1.22,.5-.39,.18-.78,.38-1.16,.59-.38,.21-.75,.43-1.11,.67-.36,.24-.71,.49-1.06,.75-.34,.26-.68,.53-1,.82-.33,.28-.64,.58-.95,.88-.31,.31-.62,.62-.91,.95-.3,.33-.59,.67-.87,1.01-.28,.35-.56,.7-.82,1.06-.27,.36-.53,.74-.78,1.11-.26,.38-.5,.77-.74,1.17-.24,.4-.48,.8-.71,1.21-.23,.41-.46,.83-.67,1.24-.22,.42-.43,.85-.64,1.28-.21,.43-.41,.87-.61,1.31-.2,.44-.39,.89-.58,1.34-.19,.45-.37,.9-.55,1.36-.18,.46-.36,.92-.53,1.38-.17,.46-.34,.93-.51,1.4-.17,.47-.33,.94-.49,1.41-.16,.47-.31,.94-.47,1.41-.15,.47-.3,.94-.45,1.41-.15,.47-.29,.94-.44,1.41-.14,.47-.28,.94-.42,1.41-.14,.46-.28,.93-.41,1.39-.13,.46-.27,.92-.4,1.38-.13,.45-.26,.91-.4,1.36-.13,.45-.26,.89-.39,1.34-.13,.44-.26,.87-.39,1.31-.13,.43-.26,.86-.39,1.28-.12,.4-.25,.8-.37,1.2-2.54,8.01-6.33,12.51-6.33,12.51"></path>
    <path class="cls-1" d="M11.73,118.14l.18,.32c7.39,11.68,17.41,20.77,28.85,26.94v-.03s.74,.39,.82,.43c.27,.14,.55,.28,.83,.42,.55,.27,1.11,.53,1.67,.77,.56,.24,1.12,.47,1.68,.69,.56,.21,1.12,.41,1.69,.59,.56,.18,1.13,.34,1.69,.49,.56,.14,1.13,.27,1.7,.38,.57,.11,1.14,.19,1.71,.26,.56,.07,1.13,.11,1.7,.13,.56,.02,1.13,.03,1.7,0,.56-.02,1.13-.07,1.69-.13,.56-.07,1.12-.16,1.68-.28,.56-.12,1.12-.26,1.67-.43,.56-.17,1.12-.37,1.66-.59,.56-.23,1.1-.48,1.64-.76,.55-.28,1.09-.59,1.62-.93,.55-.35,1.08-.72,1.6-1.11,.54-.41,1.07-.85,1.58-1.3,.54-.48,1.06-.99,1.56-1.51,.51-.53,1.01-1.08,1.48-1.65,.47-.55,.93-1.11,1.36-1.69,.24-.33,.48-.67,.7-1.02,.39-.62,.72-1.28,.94-1.97-.35,.12-.7,.24-1.05,.35-.55,.17-1.11,.32-1.67,.45-.56,.13-1.13,.24-1.71,.34-.58,.1-1.16,.17-1.75,.24-.59,.06-1.19,.11-1.78,.14-.61,.03-1.21,.05-1.82,.05-.61,0-1.22,0-1.84-.04-.31-.01-.62-.03-.93-.05-.09,0-.91-.02-.91-.07v.03c-12.94-1.04-25.78-5.32-37.25-13.04l-.3-.22,.31,.2c11.89,7.05,24.94,10.6,37.93,10.9v-.03s.82,.01,.91,.02c.31,0,.62,0,.93,0,.61,0,1.22-.03,1.84-.07,.61-.04,1.21-.09,1.81-.15,.59-.07,1.18-.15,1.77-.24,.58-.1,1.16-.21,1.73-.34,.57-.13,1.13-.27,1.68-.44,.55-.16,1.1-.34,1.64-.54,.22-.08,.43-.17,.64-.25-.03-.31-.08-.63-.13-.94-.2-1.1-.47-2.19-.74-3.27-.27-1.08-.59-2.16-.97-3.21-.26-.73-.56-1.45-.88-2.16-.22-.48-.47-.96-.72-1.43-.24-.45-.5-.88-.78-1.31-.26-.41-.54-.82-.84-1.21-.28-.38-.58-.74-.89-1.1-.3-.34-.62-.68-.95-1-.32-.31-.65-.61-1-.9-.34-.28-.69-.55-1.04-.8-.35-.25-.72-.49-1.09-.71-.37-.22-.75-.43-1.13-.63-.39-.2-.78-.38-1.17-.54-.4-.17-.8-.32-1.21-.46-.41-.14-.82-.27-1.24-.39-.42-.12-.85-.22-1.28-.31-.43-.09-.87-.17-1.31-.25-.44-.07-.89-.13-1.33-.18-.45-.05-.9-.09-1.35-.12-.46-.03-.92-.05-1.38-.06-.47-.01-.93-.01-1.4,0-.47,0-.94,.02-1.41,.04-.48,.02-.95,.05-1.43,.09-.48,.04-.96,.08-1.44,.13-.48,.05-.97,.11-1.45,.17-.48,.06-.97,.13-1.45,.2-.49,.07-.97,.15-1.46,.23-.49,.08-.98,.17-1.46,.26-.49,.09-.98,.18-1.46,.28-.48,.1-.97,.2-1.45,.3-.48,.1-.96,.21-1.45,.32-.48,.11-.96,.22-1.44,.33-.48,.11-.95,.22-1.43,.34-.47,.11-.94,.23-1.41,.34-.46,.11-.93,.23-1.39,.34-.46,.11-.92,.23-1.38,.34-.45,.11-.91,.22-1.36,.33-.44,.11-.89,.21-1.33,.32-.43,.1-.87,.2-1.31,.3-.41,.09-.82,.19-1.23,.28-8.21,1.8-14,.78-14,.78"></path>
    <path class="cls-1" d="M142.93,36.37l-.18-.32c-7.39-11.68-17.41-20.77-28.85-26.94v.03s-.74-.39-.82-.43c-.27-.14-.55-.28-.83-.42-.55-.27-1.11-.53-1.67-.77-.56-.24-1.12-.47-1.68-.69-.56-.21-1.12-.41-1.69-.59-.56-.18-1.13-.34-1.69-.49-.56-.14-1.13-.27-1.7-.38-.57-.11-1.14-.19-1.71-.26-.56-.07-1.13-.11-1.7-.13-.56-.02-1.13-.03-1.7,0-.56,.02-1.13,.07-1.69,.13-.56,.07-1.12,.16-1.68,.28-.56,.12-1.12,.26-1.67,.43-.56,.17-1.12,.37-1.66,.59-.56,.23-1.1,.48-1.64,.76-.55,.28-1.09,.59-1.62,.93-.55,.35-1.08,.72-1.6,1.11-.54,.41-1.07,.85-1.58,1.3-.54,.48-1.06,.99-1.56,1.51-.51,.53-1.01,1.08-1.48,1.65-.47,.55-.93,1.11-1.36,1.69-.24,.33-.48,.67-.7,1.02-.39,.62-.72,1.28-.93,1.97,.35-.12,.69-.24,1.05-.35,.55-.17,1.11-.32,1.67-.45,.56-.13,1.13-.24,1.71-.34,.58-.1,1.16-.17,1.75-.24,.59-.06,1.19-.11,1.78-.14,.61-.03,1.21-.05,1.82-.05,.61,0,1.22,0,1.84,.04,.31,.01,.62,.03,.93,.05,.09,0,.91,.02,.91,.07v-.03c12.94,1.04,25.78,5.32,37.25,13.04l.3,.22-.31-.2c-11.89-7.05-24.94-10.6-37.93-10.9v.03s-.82-.01-.91-.02c-.31,0-.62,0-.93,0-.61,0-1.22,.03-1.84,.07-.61,.04-1.21,.09-1.81,.15-.59,.07-1.18,.15-1.77,.24-.58,.1-1.16,.21-1.73,.34-.57,.13-1.13,.27-1.68,.44-.55,.16-1.1,.34-1.64,.54-.22,.08-.43,.17-.64,.25,.03,.31,.08,.63,.13,.94,.2,1.1,.47,2.19,.74,3.27,.27,1.08,.59,2.16,.97,3.21,.26,.73,.56,1.45,.88,2.16,.22,.48,.47,.96,.72,1.43,.24,.45,.5,.88,.78,1.31,.26,.41,.54,.82,.84,1.21,.28,.38,.58,.74,.89,1.1,.3,.34,.62,.68,.95,1,.32,.31,.65,.61,1,.9,.34,.28,.69,.55,1.04,.8,.35,.25,.72,.49,1.09,.71,.37,.22,.75,.43,1.13,.63,.39,.2,.78,.38,1.17,.54,.4,.17,.8,.32,1.21,.46,.41,.14,.82,.27,1.24,.39,.42,.12,.85,.22,1.28,.31,.43,.09,.87,.17,1.31,.25,.44,.07,.89,.13,1.33,.18,.45,.05,.9,.09,1.35,.12,.46,.03,.92,.05,1.38,.06,.47,.01,.93,.01,1.4,0,.47,0,.94-.02,1.41-.04,.48-.02,.95-.05,1.43-.09,.48-.04,.96-.08,1.44-.13,.48-.05,.97-.11,1.45-.17,.48-.06,.97-.13,1.45-.2,.49-.07,.97-.15,1.46-.23,.49-.08,.98-.17,1.46-.26,.49-.09,.98-.18,1.46-.28,.48-.1,.97-.2,1.45-.3,.48-.1,.96-.21,1.45-.32,.48-.11,.96-.22,1.44-.33,.48-.11,.95-.22,1.43-.34,.47-.11,.94-.23,1.41-.34,.46-.11,.93-.23,1.39-.34,.46-.11,.92-.23,1.38-.34,.45-.11,.91-.22,1.36-.33,.44-.11,.89-.21,1.33-.32,.43-.1,.87-.2,1.31-.3,.41-.09,.82-.19,1.23-.28,8.21-1.8,14-.78,14-.78"></path>
    <path class="cls-1" d="M145.54,113.62l.18-.32c6.42-12.24,9.28-25.46,8.91-38.45h-.03s-.03-.82-.03-.91c-.01-.31-.03-.62-.05-.93-.04-.61-.1-1.22-.16-1.83-.07-.6-.15-1.2-.25-1.8-.1-.59-.21-1.17-.33-1.76-.13-.57-.27-1.15-.43-1.71-.16-.56-.33-1.11-.52-1.66-.19-.54-.4-1.08-.63-1.61-.23-.52-.47-1.04-.73-1.54-.26-.5-.54-.99-.84-1.47-.3-.48-.62-.94-.96-1.4-.34-.45-.7-.89-1.08-1.32-.38-.43-.79-.84-1.21-1.23-.43-.4-.88-.78-1.34-1.14-.48-.37-.97-.72-1.47-1.04-.52-.34-1.06-.65-1.61-.94-.57-.3-1.16-.58-1.76-.83-.63-.26-1.27-.5-1.92-.72-.69-.23-1.39-.43-2.09-.6-.72-.18-1.44-.33-2.17-.46-.71-.13-1.42-.25-2.14-.33-.41-.05-.82-.08-1.23-.1-.73-.03-1.47,.01-2.18,.18,.28,.24,.56,.48,.83,.73,.42,.39,.83,.8,1.22,1.22,.4,.42,.78,.86,1.15,1.31,.37,.45,.73,.92,1.08,1.39,.35,.48,.69,.97,1.01,1.47,.33,.51,.65,1.03,.95,1.55,.31,.53,.6,1.06,.89,1.61,.14,.27,.28,.55,.42,.83,.04,.08,.43,.8,.4,.83l.02-.02c5.58,11.74,8.28,24.99,7.34,38.78l-.04,.37,.02-.37c.16-13.82-3.29-26.9-9.52-38.3l-.02,.02s-.4-.73-.45-.8c-.15-.27-.31-.54-.47-.8-.31-.53-.64-1.04-.98-1.56-.33-.51-.68-1-1.04-1.49-.35-.48-.72-.95-1.09-1.41-.37-.46-.76-.9-1.16-1.33-.39-.43-.8-.84-1.22-1.24-.42-.4-.85-.78-1.29-1.15-.18-.15-.36-.29-.54-.43-.25,.19-.5,.38-.74,.58-.85,.72-1.66,1.5-2.47,2.28-.8,.78-1.57,1.59-2.29,2.45-.5,.59-.98,1.21-1.43,1.84-.31,.44-.6,.88-.88,1.34-.26,.43-.51,.88-.75,1.33-.22,.44-.43,.88-.63,1.33-.18,.43-.35,.87-.5,1.32-.15,.43-.28,.88-.39,1.32-.11,.43-.2,.87-.28,1.31-.07,.43-.13,.87-.17,1.3-.04,.43-.06,.86-.07,1.3,0,.43,0,.86,.02,1.29,.02,.43,.06,.86,.12,1.29,.05,.43,.12,.85,.2,1.28,.08,.43,.18,.85,.29,1.27,.11,.43,.23,.85,.37,1.26,.14,.42,.28,.84,.44,1.26,.16,.42,.33,.83,.51,1.24,.18,.41,.37,.83,.57,1.23,.2,.41,.42,.82,.64,1.23,.22,.41,.46,.82,.69,1.22,.24,.4,.49,.8,.74,1.2,.26,.4,.52,.8,.79,1.19,.27,.4,.55,.79,.83,1.19,.28,.39,.58,.79,.87,1.17,.3,.39,.6,.77,.9,1.16,.31,.39,.62,.77,.93,1.15,.32,.38,.63,.76,.96,1.14,.32,.38,.65,.75,.98,1.13,.33,.37,.65,.74,.98,1.11,.33,.37,.66,.73,1,1.09,.33,.36,.67,.72,1.01,1.08,.33,.36,.67,.72,1.01,1.07,.33,.35,.67,.7,1,1.05,.33,.35,.66,.69,.99,1.04,.33,.34,.65,.68,.98,1.03,.32,.34,.64,.67,.97,1.01,.31,.33,.63,.66,.94,.99,.31,.33,.61,.65,.92,.98,.29,.31,.57,.61,.85,.92,5.66,6.21,7.67,11.74,7.67,11.74"></path>
    <path class="cls-1" d="M9.12,40.89l-.18,.32C2.52,53.45-.34,66.67,.03,79.66h.03s.03,.82,.03,.91c.01,.31,.03,.62,.05,.93,.04,.61,.1,1.22,.16,1.83,.07,.6,.15,1.2,.25,1.8,.1,.59,.21,1.17,.33,1.76,.13,.57,.27,1.15,.43,1.71,.16,.56,.33,1.11,.52,1.66,.19,.54,.4,1.08,.63,1.61,.23,.52,.47,1.04,.73,1.54,.26,.5,.54,.99,.84,1.47,.3,.48,.62,.94,.96,1.4,.34,.45,.7,.89,1.08,1.32,.38,.43,.79,.84,1.21,1.23,.43,.4,.88,.78,1.34,1.14,.48,.37,.97,.72,1.47,1.04,.52,.34,1.06,.65,1.61,.94,.57,.3,1.16,.58,1.76,.83,.63,.27,1.27,.5,1.92,.72,.69,.23,1.39,.43,2.09,.6,.72,.18,1.44,.33,2.17,.46,.71,.13,1.42,.25,2.14,.33,.41,.05,.82,.08,1.23,.1,.73,.03,1.47-.01,2.18-.18-.28-.24-.56-.48-.83-.73-.42-.39-.83-.8-1.22-1.22-.4-.42-.78-.86-1.15-1.31-.37-.45-.73-.92-1.08-1.39-.35-.48-.69-.97-1.01-1.47-.33-.51-.65-1.03-.95-1.55-.31-.53-.6-1.06-.89-1.61-.14-.27-.28-.55-.42-.83-.04-.08-.43-.79-.4-.83l-.02,.02c-5.58-11.74-8.28-24.99-7.34-38.78l.04-.37-.02,.37c-.16,13.82,3.29,26.9,9.52,38.3l.02-.02s.4,.73,.45,.8c.15,.27,.31,.54,.47,.8,.31,.53,.64,1.04,.98,1.56,.33,.51,.68,1,1.04,1.49,.35,.48,.72,.95,1.09,1.41,.37,.46,.76,.9,1.16,1.33,.39,.43,.8,.84,1.22,1.24,.42,.4,.85,.78,1.29,1.15,.18,.15,.36,.29,.54,.43,.25-.19,.5-.38,.74-.58,.85-.72,1.66-1.5,2.47-2.28,.8-.78,1.57-1.59,2.29-2.45,.5-.59,.98-1.21,1.43-1.84,.31-.44,.6-.88,.88-1.34,.26-.43,.51-.88,.75-1.33,.22-.44,.43-.88,.63-1.33,.18-.43,.35-.87,.5-1.32,.15-.43,.28-.88,.39-1.32,.11-.43,.2-.87,.28-1.31,.07-.43,.13-.87,.17-1.3,.04-.43,.06-.86,.07-1.3,0-.43,0-.86-.02-1.29-.02-.43-.06-.86-.12-1.29-.05-.43-.12-.85-.2-1.28-.08-.43-.18-.85-.29-1.27-.11-.43-.23-.85-.37-1.26-.14-.42-.28-.84-.44-1.26-.16-.42-.33-.83-.51-1.24-.18-.41-.37-.83-.57-1.23-.2-.41-.42-.82-.64-1.23-.22-.41-.46-.82-.69-1.22-.24-.4-.49-.8-.74-1.2-.26-.4-.52-.8-.79-1.19-.27-.4-.55-.79-.83-1.19-.28-.39-.58-.79-.87-1.17-.3-.39-.6-.77-.9-1.16-.31-.39-.62-.77-.93-1.15-.32-.38-.63-.76-.96-1.14-.32-.38-.65-.75-.98-1.13-.33-.37-.65-.74-.98-1.11-.33-.37-.66-.73-1-1.09-.33-.36-.67-.72-1.01-1.08-.33-.36-.67-.72-1.01-1.07-.33-.35-.67-.7-1-1.05-.33-.35-.66-.69-.99-1.04-.33-.34-.65-.68-.98-1.03-.32-.34-.64-.67-.97-1.01-.31-.33-.63-.66-.94-.99-.31-.33-.61-.65-.92-.98-.29-.31-.57-.61-.85-.92-5.66-6.21-7.67-11.74-7.67-11.74"></path>
  </g></svg></g></g></svg>